<svg xmlns="http://www.w3.org/2000/svg" viewBox="0 0 760 150" role="img" aria-labelledby="title desc">
  <title id="title">Auto Viacao Leste</title>
  <desc id="desc">Logotipo principal da Auto Viacao Leste com simbolo teal e lettering branco.</desc>
  <defs>
    <linearGradient id="teal" x1="12" y1="22" x2="114" y2="126" gradientUnits="userSpaceOnUse">
      <stop offset="0" stop-color="#72F2F1"/>
      <stop offset=".48" stop-color="#15B8B8"/>
      <stop offset="1" stop-color="#087A82"/>
    </linearGradient>
    <linearGradient id="ice" x1="34" y1="14" x2="92" y2="122" gradientUnits="userSpaceOnUse">
      <stop offset="0" stop-color="#FFFFFF"/>
      <stop offset=".62" stop-color="#BEEFF0"/>
      <stop offset="1" stop-color="#5ECFD0"/>
    </linearGradient>
    <filter id="softShadow" x="-20%" y="-20%" width="140%" height="140%">
      <feDropShadow dx="0" dy="3" stdDeviation="3" flood-color="#00161D" flood-opacity=".45"/>
    </filter>
  </defs>
  <rect width="760" height="150" fill="none"/>
  <g filter="url(#softShadow)">
    <circle cx="75" cy="75" r="55" fill="#061922"/>
    <path d="M75 15a60 60 0 1 1 0 120 60 60 0 0 1 0-120Zm0 8a52 52 0 1 0 0 104 52 52 0 0 0 0-104Z" fill="url(#teal)"/>
    <path d="M74 26c27 0 47 16 55 39-22-11-43-14-63-9L45 36c8-6 18-10 29-10Z" fill="url(#ice)"/>
    <path d="M28 78c0-16 7-31 18-40l13 25-12 46c-12-7-19-18-19-31Z" fill="#6EE7EA"/>
    <path d="M66 61c22-7 44-3 65 11-17 4-33 12-48 25L66 61Z" fill="#13B6B8"/>
    <path d="M84 101c13-13 29-21 47-25-1 19-12 36-29 45L84 101Z" fill="#EAFDFD"/>
    <path d="M60 67 79 105l-17 18-11-13 9-43Z" fill="#0B727D"/>
    <path d="M44 37 66 59l-7 8-14-30Z" fill="#DFFBFB"/>
    <path d="M102 121c-17 9-39 8-55-3l32-11 23 14Z" fill="#4FD4D5"/>
  </g>
  <g fill="#F7FBFB" font-family="Orbitron, Rajdhani, Eurostile, Arial Black, Arial, sans-serif" font-size="36" font-weight="800" letter-spacing="5">
    <text x="154" y="89">AUTO VIAÇÃO LESTE</text>
  </g>
  <g fill="#17C8CA">
    <path d="M244 70h19l12 9-12 10h-19l12-10-12-9Z"/>
    <path d="M394 70h19l12 9-12 10h-19l12-10-12-9Z"/>
  </g>
</svg>
