<svg role="img" aria-labelledby="title desc" xmlns="http://www.w3.org/2000/svg" width="512" height="557" viewBox="0 0 512 557" version="1.1"><title id="title">Auto Viacao Leste - logo vetorizada</title><desc id="desc">Vetorizacao automatica da logo oficial, sem alterar a estrutura da marca.</desc>
	<rect x="0" y="0" width="100%" height="100%" fill="#1B2028" />
	<path fill-opacity="0.119" d="M 0 278.502 L 0 557.004 256.250 556.752 L 512.500 556.500 512.752 278.250 L 513.004 0 256.502 0 L 0 0 0 278.502 M 0.493 279 C 0.493 432.175, 0.609 494.838, 0.750 418.250 C 0.891 341.663, 0.891 216.338, 0.750 139.750 C 0.609 63.163, 0.493 125.825, 0.493 279 M 85.252 271.500 C 85.263 273.700, 85.468 274.482, 85.707 273.238 C 85.946 271.994, 85.937 270.194, 85.687 269.238 C 85.437 268.282, 85.241 269.300, 85.252 271.500" stroke="none" fill="black" fill-rule="evenodd"/>
	<path fill-opacity="0.088" d="M 0 278.502 L 0 557.004 256.250 556.752 L 512.500 556.500 512.752 278.250 L 513.004 0 256.502 0 L 0 0 0 278.502 M 0.493 279 C 0.493 432.175, 0.609 494.838, 0.750 418.250 C 0.891 341.663, 0.891 216.338, 0.750 139.750 C 0.609 63.163, 0.493 125.825, 0.493 279 M 218.500 60.041 C 206.569 61.394, 189.792 64.748, 178.286 68.080 C 168.026 71.051, 152 76.835, 152 77.567 C 152 77.783, 153.776 78.865, 155.946 79.972 C 158.222 81.134, 160.140 81.583, 160.479 81.035 C 161.235 79.811, 183.567 72.540, 194.669 69.904 C 206.035 67.204, 222.674 65.044, 232.281 65.020 C 238.321 65.004, 240.194 64.658, 240.648 63.474 C 241.104 62.286, 241.544 62.206, 242.640 63.116 C 243.765 64.050, 243.923 63.964, 243.432 62.683 C 242.967 61.472, 241.079 61.001, 235.659 60.741 C 231.401 60.537, 233.769 60.325, 241.500 60.219 C 256.589 60.011, 263.792 60.905, 280.424 65.052 C 290.589 67.587, 313.072 74.768, 319.250 77.453 C 320.321 77.919, 321 77.784, 321 77.107 C 321 76.498, 320.319 76, 319.486 76 C 318.654 76, 317.191 75.591, 316.236 75.091 C 315.281 74.590, 312.925 73.476, 311 72.613 C 304.993 69.923, 309.493 70.854, 317.620 73.983 C 321.881 75.624, 325.535 76.798, 325.741 76.593 C 326.459 75.874, 309.397 69.812, 297.217 66.458 C 290.461 64.597, 280.336 62.352, 274.717 61.467 C 262.669 59.571, 229.960 58.741, 218.500 60.041 M 238.762 96.707 C 240.006 96.946, 241.806 96.937, 242.762 96.687 C 243.718 96.437, 242.700 96.241, 240.500 96.252 C 238.300 96.263, 237.518 96.468, 238.762 96.707 M 197 100.986 C 197.825 101.527, 199.588 101.976, 200.917 101.985 C 204.126 102.005, 203.313 101.436, 199 100.645 C 196.538 100.193, 195.945 100.294, 197 100.986 M 227.842 116.242 C 228.293 116.693, 229.750 116.618, 231.080 116.076 C 233.359 115.147, 233.311 115.100, 230.262 115.257 C 228.481 115.349, 227.392 115.792, 227.842 116.242 M 89.952 119.500 C 89.848 120.050, 89.828 120.871, 89.906 121.324 C 89.985 121.778, 89.634 121.892, 89.127 121.578 C 88.124 120.959, 77.119 132.889, 69.827 142.500 C 51.871 166.168, 36.825 198.064, 30.980 224.853 C 27.737 239.714, 25.999 256.505, 26.017 272.801 C 26.047 299.687, 28.834 317.663, 36.592 341 C 40.769 353.566, 51.810 377.936, 55.393 382.500 C 56.257 383.600, 54.595 379.775, 51.700 374 C 43.116 356.877, 36.695 334.481, 32.939 308.556 C 31.109 295.923, 30.848 290.586, 31.249 274.056 C 31.799 251.388, 33.829 236.399, 38.615 219.672 C 42.905 204.678, 45.639 197.680, 53.555 181.440 C 62.501 163.085, 74.630 145.338, 87.872 131.231 C 91.494 127.372, 91.986 127.132, 92.987 128.731 C 93.917 130.215, 93.984 130.097, 93.405 128 C 92.129 123.380, 90.143 118.491, 89.952 119.500 M 110.204 184.171 C 106.321 190.453, 99.280 205.446, 95.725 215 C 82.633 250.192, 81.782 285.099, 93.146 320.880 C 96.082 330.123, 107.239 355, 108.448 355 C 108.770 355, 107.876 352.715, 106.460 349.921 L 103.886 344.842 106.024 344.284 C 108.470 343.644, 108.654 344.541, 103.016 329.637 C 93.540 304.585, 90.138 279.434, 93.053 255.974 C 95.441 236.752, 99.564 222.586, 108.604 202.535 C 111.978 195.051, 113.787 189.808, 113.434 188.535 C 112.979 186.895, 113.073 186.791, 113.919 188 C 115.407 190.124, 115.249 187.822, 113.646 184.010 L 112.293 180.791 110.204 184.171 M 65.365 273.500 C 65.368 279, 65.536 281.122, 65.738 278.216 C 65.941 275.311, 65.939 270.811, 65.734 268.216 C 65.528 265.622, 65.363 268, 65.365 273.500 M 280.750 401.068 C 278.688 402.157, 277 403.271, 277 403.544 C 277 403.817, 278.800 403.122, 281 402 C 283.200 400.878, 285 399.743, 285 399.480 C 285 398.826, 284.993 398.828, 280.750 401.068 M 269.750 407.068 C 267.688 408.157, 266 409.271, 266 409.544 C 266 409.817, 267.800 409.122, 270 408 C 272.200 406.878, 274 405.743, 274 405.480 C 274 404.826, 273.993 404.828, 269.750 407.068 M 259.714 412.584 C 256.811 414.095, 255.200 415.514, 255.619 416.192 C 256.031 416.858, 255.857 417.030, 255.189 416.617 C 254.573 416.236, 252.227 416.864, 249.977 418.012 C 244.629 420.740, 238.999 424.378, 241.302 423.618 C 242.428 423.246, 242.859 423.419, 242.451 424.080 C 242.092 424.661, 241.144 424.885, 240.345 424.579 C 239.546 424.272, 236.554 425.362, 233.696 427.001 L 228.500 429.981 235.792 429.991 C 239.803 429.996, 243.628 429.526, 244.292 428.947 C 244.956 428.367, 247.075 427.115, 249 426.164 C 250.925 425.212, 252.425 423.998, 252.334 423.467 C 252.242 422.935, 253.265 422.434, 254.605 422.354 C 255.946 422.274, 257.720 421.647, 258.547 420.961 C 259.884 419.851, 259.882 419.527, 258.525 418.028 C 257.686 417.101, 257 416.050, 257 415.692 C 257 415.334, 258.800 414.122, 261 413 C 263.200 411.878, 265 410.743, 265 410.480 C 265 409.822, 265.089 409.786, 259.714 412.584 M 261.698 413.636 C 260.628 414.706, 260.870 416.199, 262 415.500 C 262.550 415.160, 263 415.595, 263 416.467 C 263 417.906, 263.276 417.909, 266 416.500 C 267.650 415.647, 269 414.832, 269 414.689 C 269 414.546, 268.212 414.397, 267.250 414.359 C 266.288 414.320, 264.801 413.985, 263.948 413.613 C 263.094 413.242, 262.082 413.252, 261.698 413.636 M 250.750 418.572 C 247.616 420.272, 247.380 420.667, 249.496 420.667 C 250.319 420.667, 251.738 419.842, 252.651 418.833 C 254.631 416.646, 254.368 416.609, 250.750 418.572 M 179.972 456.902 C 160.702 467.441, 157.214 469.683, 158.559 470.666 C 161.452 472.782, 182.079 479.005, 194.416 481.484 C 201.062 482.819, 211.160 484.381, 216.856 484.956 C 228.296 486.109, 251.173 486.174, 260.500 485.078 C 263.874 484.682, 257.747 484.491, 246.500 484.642 C 233.068 484.822, 227.978 484.624, 231 484.038 C 233.475 483.559, 236.287 483.385, 237.250 483.651 C 238.415 483.973, 239 483.572, 239 482.451 C 239 481.259, 238.415 480.920, 237.001 481.289 C 235.902 481.577, 234.789 481.467, 234.528 481.046 C 234.268 480.624, 230.105 479.962, 225.277 479.574 C 209.074 478.270, 177.378 471.778, 174.843 469.243 C 174.314 468.714, 178.777 465.742, 185.723 461.995 C 192.201 458.502, 199.197 454.587, 201.271 453.296 C 204.842 451.073, 205.477 451.001, 213.271 451.940 C 217.797 452.485, 226.450 452.979, 232.500 453.038 C 248.080 453.189, 248.759 453.145, 247.105 452.091 C 245.981 451.375, 246.078 451.098, 247.605 450.666 C 248.912 450.296, 248.724 450.187, 247 450.315 C 245.625 450.417, 244.208 450.903, 243.851 451.396 C 243.494 451.888, 242.369 451.933, 241.351 451.495 C 238.230 450.154, 236.130 449.981, 235.491 451.014 C 235.156 451.556, 234.346 451.993, 233.691 451.985 C 232.975 451.975, 233.099 451.582, 234 451 C 235.093 450.294, 234.142 449.977, 230.500 449.834 C 227.750 449.726, 233.825 449.347, 244 448.992 C 260.300 448.423, 276.864 446.531, 275.704 445.371 C 275.481 445.148, 270.634 445.704, 264.933 446.607 C 256.787 447.897, 250.492 448.128, 235.534 447.683 C 225.065 447.372, 213.461 446.487, 209.746 445.715 L 202.992 444.312 179.972 456.902 M 270.500 483 L 266.500 483.716 270 483.740 C 271.925 483.753, 274.850 483.420, 276.500 483 C 279.151 482.326, 279.209 482.239, 277 482.260 C 275.625 482.273, 272.700 482.606, 270.500 483" stroke="none" fill="black" fill-rule="evenodd"/>
	<path fill-opacity="0.072" d="M 0 278.502 L 0 557.004 256.250 556.752 L 512.500 556.500 512.752 278.250 L 513.004 0 256.502 0 L 0 0 0 278.502 M 0.493 279 C 0.493 432.175, 0.609 494.838, 0.750 418.250 C 0.891 341.663, 0.891 216.338, 0.750 139.750 C 0.609 63.163, 0.493 125.825, 0.493 279 M 216.500 60.165 C 198.095 62.242, 173.433 68.487, 156.623 75.326 L 150.790 77.699 175.088 89.982 L 199.386 102.266 208.055 100.598 C 223.150 97.693, 235.067 96.756, 249.500 97.338 C 268.227 98.094, 275.507 99.419, 299.500 106.444 C 300.600 106.766, 299.983 106.324, 298.128 105.462 C 296.274 104.600, 291.112 102.920, 286.658 101.727 C 282.204 100.535, 277.743 98.743, 276.743 97.743 C 275.744 96.744, 274.498 96.192, 273.975 96.516 C 272.904 97.177, 265.879 94.161, 264.803 92.578 C 264.419 92.014, 264.644 91.210, 265.303 90.792 C 266.113 90.276, 265.935 90.026, 264.750 90.015 C 262.217 89.993, 262.598 88.459, 265.750 85.994 C 267.262 84.811, 268.737 82.899, 269.028 81.745 C 269.318 80.592, 270.168 79.444, 270.917 79.194 C 271.666 78.945, 271.999 79.193, 271.657 79.745 C 271.303 80.319, 272.146 80.750, 273.625 80.750 C 275.049 80.750, 275.748 80.462, 275.179 80.110 C 273.857 79.294, 274.147 75.874, 275.676 74.253 C 276.322 73.567, 277.557 73.276, 278.419 73.607 C 279.467 74.009, 280.288 73.428, 280.893 71.855 C 281.690 69.786, 281.886 69.713, 282.507 71.250 C 283.499 73.706, 285.349 73.442, 284.694 70.938 C 284.212 69.093, 284.477 68.946, 287.202 69.544 C 289.257 69.996, 290.035 69.865, 289.589 69.144 C 289.189 68.496, 290.817 68.656, 293.714 69.548 C 296.346 70.359, 299.625 71.307, 301 71.655 C 306.878 73.142, 326.839 81.344, 335.795 85.952 C 347.924 92.192, 362.218 101.410, 371.755 109.142 C 378.664 114.744, 381.905 115.855, 380.520 112.149 C 380.181 111.242, 384.538 114.997, 390.202 120.494 L 400.500 130.487 389.932 119.682 C 384.120 113.739, 378.495 108.732, 377.432 108.555 C 376.370 108.379, 375.598 107.775, 375.718 107.214 C 375.837 106.653, 372.522 103.625, 368.351 100.485 C 351.739 87.982, 333.077 78.218, 311.466 70.723 C 287.979 62.577, 265.494 58.920, 240.199 59.131 C 231.564 59.203, 220.900 59.668, 216.500 60.165 M 226.083 115.386 C 226.313 115.598, 232.125 118.540, 239 121.923 C 245.875 125.306, 250.626 127.382, 249.559 126.537 C 248.491 125.692, 247.294 125, 246.897 125 C 246.501 125, 246.328 124.213, 246.512 123.250 C 246.696 122.287, 246.881 120.889, 246.923 120.142 C 246.978 119.179, 247.801 118.969, 249.750 119.422 C 251.604 119.853, 252.045 119.758, 251.105 119.132 C 249.975 118.379, 250.070 118.110, 251.605 117.717 C 252.647 117.450, 251.025 117.104, 248 116.948 L 242.500 116.664 248.500 116 C 253.003 115.502, 250.903 115.294, 240.083 115.168 C 232.154 115.076, 225.854 115.174, 226.083 115.386 M 232.615 116.813 C 232.339 117.260, 235.047 119.073, 238.633 120.842 C 242.219 122.610, 244.915 123.672, 244.625 123.202 C 244.334 122.732, 242.276 121.526, 240.051 120.523 C 236.850 119.079, 236.239 118.417, 237.125 117.349 C 238.015 116.277, 237.719 116, 235.681 116 C 234.272 116, 232.892 116.366, 232.615 116.813 M 260 116.904 C 273.910 118.946, 274.684 119.018, 271.500 117.980 C 269.850 117.442, 265.350 116.798, 261.500 116.549 C 254.905 116.123, 254.818 116.143, 260 116.904 M 83.125 126.574 C 58.672 152.758, 39.970 187.425, 31.488 222.291 C 27.170 240.042, 25.707 256.047, 26.264 279.430 C 26.908 306.455, 29.577 321.755, 37.702 345 C 41.949 357.150, 56.048 385.600, 57.667 385.289 C 58.271 385.173, 58.705 385.848, 58.632 386.789 C 58.560 387.730, 59.010 388.405, 59.632 388.289 C 60.255 388.173, 60.705 388.848, 60.632 389.789 C 60.560 390.730, 61.096 391.376, 61.824 391.225 C 62.559 391.073, 62.850 391.434, 62.478 392.036 C 61.658 393.363, 73.433 408.942, 82.480 418.500 C 87.104 423.386, 86.372 422.328, 80.055 415 C 75.078 409.225, 71.004 404.163, 71.003 403.750 C 71.001 403.337, 71.675 403, 72.500 403 C 73.325 403, 74 403.536, 74 404.191 C 74 404.846, 74.635 404.514, 75.411 403.452 C 76.941 401.360, 76.533 399.553, 74.776 400.638 C 74.107 401.052, 73.981 400.840, 74.447 400.086 C 74.862 399.414, 75.828 399.104, 76.593 399.397 C 77.624 399.793, 77.987 398.973, 77.998 396.215 C 78.006 394.172, 78.081 391.825, 78.164 391 C 78.247 390.175, 78.012 388.563, 77.643 387.418 C 77.181 385.986, 77.601 384.766, 78.986 383.513 C 81.376 381.350, 81.573 380, 79.500 380 C 78.675 380, 78 379.564, 78 379.031 C 78 378.499, 78.693 378.329, 79.541 378.654 C 80.388 378.979, 81.010 378.853, 80.922 378.373 C 80.835 377.893, 80.866 377.275, 80.992 377 C 81.118 376.725, 81.364 373.944, 81.539 370.819 C 81.713 367.695, 82.370 364.178, 82.998 363.005 C 83.908 361.304, 84.427 361.110, 85.559 362.049 C 86.339 362.697, 86.731 363.626, 86.430 364.113 C 86.129 364.601, 86.584 365, 87.441 365 C 89.531 365, 89.421 363.337, 87.250 362.112 C 85.848 361.321, 85.749 360.873, 86.750 359.862 C 87.548 359.057, 88 358.995, 88 359.691 C 88 360.962, 99.695 379, 100.519 379 C 100.824 379, 99.158 376.187, 96.815 372.750 C 94.472 369.313, 89.694 361.100, 86.198 354.500 C 82.702 347.900, 80.145 343.400, 80.517 344.500 C 82.052 349.048, 82.052 349.371, 80.519 346.726 C 79.635 345.201, 79.167 343.539, 79.479 343.034 C 79.791 342.528, 78.220 336.816, 75.987 330.340 C 63.087 292.928, 62.939 255.980, 75.534 217.249 C 80.020 203.455, 89.983 183.199, 98.453 170.655 L 105.100 160.811 103.049 154.655 C 101.921 151.270, 98.593 141.835, 95.654 133.690 L 90.310 118.879 83.125 126.574 M 279.500 120.570 C 282.250 121.335, 284.950 121.923, 285.500 121.876 C 287.192 121.731, 278.629 119.153, 276.500 119.166 C 275.400 119.173, 276.750 119.805, 279.500 120.570 M 290 123.500 C 294.566 125.258, 296.362 125.232, 292.500 123.464 C 290.850 122.708, 288.825 122.104, 288 122.121 C 287.175 122.138, 288.075 122.759, 290 123.500 M 110.002 184.137 C 101.880 197.108, 91.838 223.338, 87.851 242 C 85.998 250.668, 85.600 255.728, 85.565 271 C 85.534 284.833, 85.972 291.770, 87.302 298.500 C 89.989 312.094, 93.552 323.865, 98.423 335.241 C 102.608 345.015, 111.597 362, 112.584 362 C 113.055 362, 114.120 359.465, 115.474 355.125 C 115.939 353.634, 115.845 352.978, 115.222 353.363 C 114.185 354.003, 105.551 335.811, 101.984 325.470 C 99.776 319.068, 96 304.905, 96 303.024 C 96 302.396, 96.399 302.128, 96.886 302.430 C 97.374 302.731, 98.007 302.083, 98.293 300.989 C 98.579 299.895, 98.378 299, 97.847 299 C 97.316 299, 97.179 298.520, 97.542 297.933 C 97.905 297.345, 97.257 296.619, 96.101 296.316 C 94.945 296.014, 94 295.112, 94 294.312 C 94 293.088, 94.250 293.107, 95.571 294.429 C 96.436 295.293, 97.491 296, 97.917 296 C 98.343 296, 98.770 293.604, 98.865 290.675 C 98.961 287.746, 99.439 283.955, 99.928 282.250 C 100.417 280.545, 100.558 278.892, 100.242 278.575 C 99.926 278.259, 100.192 278, 100.833 278 C 101.475 278, 102 277.550, 102 277 C 102 276.450, 101.270 276, 100.378 276 C 99.191 276, 99.035 275.663, 99.795 274.747 C 100.476 273.927, 100.528 271.857, 99.947 268.747 C 99.460 266.136, 99.410 262.087, 99.838 259.750 C 100.265 257.413, 100.230 253.925, 99.759 252 C 99.289 250.075, 98.850 247.957, 98.785 247.294 C 98.720 246.631, 98.326 246.299, 97.909 246.556 C 97.492 246.814, 96.945 246.231, 96.692 245.262 C 96.365 244.011, 96.198 244.201, 96.116 245.917 C 96.052 247.246, 95.731 248.064, 95.401 247.735 C 95.072 247.406, 95.593 243.481, 96.558 239.013 C 97.532 234.507, 98.641 231.419, 99.049 232.080 C 99.560 232.907, 100.123 232.638, 100.893 231.201 C 102.273 228.622, 102.340 225.672, 101 226.500 C 99.867 227.200, 99.703 225.937, 100.618 223.552 C 101.178 222.093, 101.355 222.103, 102.492 223.658 C 103.646 225.237, 103.805 225.191, 104.473 223.086 C 104.891 221.767, 104.733 220.333, 104.099 219.699 C 103.300 218.900, 103 218.973, 103 219.967 C 103 220.718, 102.773 221.106, 102.495 220.829 C 101.706 220.039, 104.099 213.943, 104.984 214.490 C 105.418 214.758, 106.387 214.224, 107.137 213.302 C 108.336 211.828, 108.276 211.710, 106.639 212.324 C 105.205 212.862, 104.918 212.656, 105.389 211.430 C 105.725 210.553, 106 209.622, 106 209.359 C 106 209.097, 106.520 209.203, 107.155 209.595 C 107.873 210.040, 108.037 209.870, 107.590 209.146 C 107.194 208.506, 107.174 207.027, 107.545 205.859 C 108.019 204.365, 108.445 204.103, 108.984 204.975 C 109.448 205.724, 110.596 205.946, 111.890 205.535 C 113.066 205.162, 113.771 204.438, 113.456 203.928 C 113.140 203.418, 113.359 203, 113.941 203 C 114.523 203, 115 202.100, 115 201 C 115 199.210, 116.039 198.532, 118.250 198.882 C 118.662 198.947, 119 198.861, 119 198.691 C 119 198.084, 112.834 181.501, 112.475 181.141 C 112.273 180.940, 111.160 182.288, 110.002 184.137 M 120.392 204.877 C 120.452 206.487, 120.756 207.647, 121.068 207.455 C 121.381 207.263, 122.210 208.691, 122.910 210.628 C 123.611 212.565, 124.357 213.977, 124.568 213.765 C 124.905 213.428, 121.258 202.942, 120.554 202.226 C 120.406 202.075, 120.333 203.268, 120.392 204.877 M 309.831 385.266 C 305.612 387.595, 302.087 389.950, 301.997 390.500 C 301.907 391.050, 301.574 391.725, 301.256 392 C 300.939 392.275, 301.003 391.938, 301.399 391.250 C 301.794 390.563, 301.847 390, 301.515 390 C 300.894 390, 236.858 424.908, 231.500 428.168 L 228.500 429.993 241 429.854 C 249.465 429.761, 252.209 429.485, 249.500 429 C 245.648 428.310, 245.620 428.279, 248.750 428.142 C 250.561 428.063, 251.889 427.507, 251.750 426.886 C 251.613 426.274, 265.077 417.836, 281.672 408.136 C 309.764 391.716, 315.808 387.985, 311.880 389.493 C 311.022 389.822, 309.764 389.421, 309.084 388.601 C 308.041 387.345, 308.644 386.707, 312.924 384.539 C 315.716 383.124, 318 381.749, 318 381.483 C 318 380.753, 318.041 380.734, 309.831 385.266 M 92.111 414.111 C 91.495 415.878, 91.166 417.499, 91.380 417.713 C 91.594 417.927, 92.273 416.656, 92.889 414.889 C 93.505 413.122, 93.834 411.501, 93.620 411.287 C 93.406 411.073, 92.727 412.344, 92.111 414.111 M 388.500 425.710 C 377.794 435.920, 371.064 441.146, 369.658 440.342 C 369.021 439.977, 368.834 440.048, 369.241 440.498 C 369.649 440.948, 369.424 442.015, 368.741 442.869 C 365.065 447.468, 388.703 427.395, 394.924 420.634 C 399.380 415.793, 396.580 418.005, 388.500 425.710 M 326 425.499 C 313.194 433.540, 289.817 442.078, 270.686 445.700 C 258.130 448.077, 222.033 448.100, 210.807 445.737 L 203.113 444.118 180.057 456.748 C 167.375 463.695, 157 469.700, 157 470.092 C 157 471.403, 184.527 479.849, 195.582 481.931 C 211.630 484.952, 222.718 485.983, 239.289 485.992 C 268.841 486.008, 291.921 481.660, 319.760 470.831 C 325.403 468.637, 329.767 466.432, 329.458 465.932 C 329.149 465.432, 329.668 465.319, 330.612 465.681 C 331.868 466.164, 332.109 465.985, 331.510 465.015 C 330.990 464.174, 331.079 463.931, 331.755 464.349 C 333.040 465.143, 336.172 464.087, 335.544 463.071 C 335.299 462.676, 336.090 462.385, 337.300 462.426 C 338.624 462.470, 339.391 461.972, 339.225 461.176 C 339.074 460.447, 339.425 460.145, 340.006 460.504 C 340.587 460.863, 343.635 459.706, 346.781 457.934 C 353.481 454.159, 367 445.152, 367 444.463 C 367 444.201, 363.171 446.535, 358.490 449.650 C 353.810 452.765, 349.647 454.980, 349.240 454.573 C 348.041 453.374, 348.340 451.593, 349.974 450.195 C 351.256 449.098, 351.136 449.066, 349.222 449.995 C 347.969 450.603, 347.244 451.586, 347.611 452.180 C 348.004 452.815, 347.706 453.057, 346.889 452.767 C 345.523 452.283, 340 454.542, 340 455.585 C 340 455.878, 340.450 455.840, 341 455.500 C 341.550 455.160, 342 455.632, 342 456.548 C 342 457.618, 342.537 458.008, 343.500 457.638 C 345.807 456.753, 345.277 457.785, 342.750 459.100 C 341.512 459.744, 340.835 459.913, 341.244 459.475 C 341.653 459.037, 341.137 458.084, 340.098 457.356 C 338.456 456.206, 337.108 456.541, 329.803 459.916 C 325.180 462.052, 316.696 465.405, 310.949 467.366 C 300.546 470.917, 286.910 474.243, 286.095 473.428 C 285.859 473.193, 286.247 473, 286.956 473 C 287.919 473, 287.964 472.662, 287.134 471.661 C 286.366 470.736, 283.991 470.403, 279.453 470.584 C 273.893 470.805, 273.063 470.629, 274.054 469.435 C 274.972 468.328, 274.877 467.890, 273.613 467.405 C 272.726 467.064, 272 466.133, 272 465.334 C 272 464.535, 271.581 464.141, 271.068 464.458 C 270.556 464.774, 269.544 464.209, 268.818 463.201 C 267.507 461.379, 264.183 459.538, 262.750 459.841 C 262.337 459.929, 262 459.298, 262 458.441 C 262 457.584, 261.625 457.114, 261.167 457.397 C 260.708 457.680, 260.333 457.257, 260.333 456.456 C 260.333 455.655, 260.708 455, 261.167 455 C 261.625 455, 262 455.450, 262 456 C 262 456.550, 262.450 457, 263 457 C 263.550 457, 264 456.325, 264 455.500 C 264 454.547, 262.997 453.974, 261.250 453.930 C 259.738 453.891, 262.384 453.040, 267.132 452.039 C 284.620 448.349, 300.645 442.830, 314.500 435.724 C 317.250 434.314, 320.400 432.425, 321.500 431.528 C 323.458 429.931, 323.447 429.909, 321 430.490 L 318.500 431.083 321 429.577 C 323.983 427.780, 325.373 427.587, 324.438 429.100 C 323.961 429.873, 324.389 429.862, 325.879 429.065 C 328.449 427.690, 328.655 426.866, 326.250 427.588 C 324.821 428.016, 324.866 427.835, 326.500 426.600 C 327.600 425.768, 329.400 424.407, 330.500 423.575 C 333.981 420.944, 331.702 421.918, 326 425.499 M 257.762 428.707 C 259.006 428.946, 260.806 428.937, 261.762 428.687 C 262.718 428.437, 261.700 428.241, 259.500 428.252 C 257.300 428.263, 256.518 428.468, 257.762 428.707" stroke="none" fill="black" fill-rule="evenodd"/>
	<path fill-opacity="0.101" d="M 0 278.502 L 0 557.004 256.250 556.752 L 512.500 556.500 512.752 278.250 L 513.004 0 256.502 0 L 0 0 0 278.502 M 0.493 279 C 0.493 432.175, 0.609 494.838, 0.750 418.250 C 0.891 341.663, 0.891 216.338, 0.750 139.750 C 0.609 63.163, 0.493 125.825, 0.493 279 M 212.500 60.563 C 200.273 62.221, 190.197 64.350, 179 67.639 C 170.937 70.008, 151.909 76.761, 151.142 77.526 C 150.944 77.723, 161.712 83.351, 175.069 90.034 L 199.355 102.185 211.927 100.107 C 237.973 95.801, 259.856 96.383, 282.773 101.991 C 296.506 105.352, 307.509 109.409, 319.551 115.554 C 324.321 117.988, 328.693 119.690, 329.267 119.335 C 329.840 118.981, 330.024 119.152, 329.675 119.716 C 329.327 120.280, 331.702 122.383, 334.953 124.390 C 342.330 128.944, 350.429 135.367, 359.556 143.901 C 363.437 147.531, 362.537 146.465, 357.556 141.534 C 352.575 136.602, 348.612 132.215, 348.750 131.784 C 348.887 131.353, 348.662 131.053, 348.250 131.118 C 346.239 131.436, 344.947 130.895, 345.515 129.975 C 345.864 129.412, 345.778 129.033, 345.324 129.134 C 343.821 129.469, 341.002 127.805, 341.556 126.910 C 341.855 126.426, 339.981 124.560, 337.391 122.765 C 334.802 120.969, 331.418 118.459, 329.872 117.187 C 327.495 115.231, 327.242 114.585, 328.231 113.002 C 328.874 111.972, 329.731 111.334, 330.136 111.584 C 330.540 111.834, 330.463 110.616, 329.965 108.877 C 329.020 105.582, 329.695 102.889, 330.955 104.927 C 332.126 106.822, 334.842 105.111, 334.251 102.851 C 333.858 101.347, 333.516 101.165, 332.916 102.137 C 332.472 102.855, 331.780 103.113, 331.377 102.710 C 330.975 102.308, 331.625 101.066, 332.823 99.950 C 334.020 98.835, 335 97.435, 335 96.839 C 335 96.094, 335.434 96.115, 336.388 96.907 C 337.437 97.778, 338.414 97.768, 340.388 96.869 C 343.013 95.673, 344.011 93, 341.833 93 C 341.192 93, 340.953 92.714, 341.302 92.365 C 341.652 92.015, 343.089 92.484, 344.497 93.406 C 345.905 94.328, 347.505 94.806, 348.053 94.467 C 348.601 94.129, 352.301 95.985, 356.275 98.592 C 373.146 109.661, 392.414 127.123, 406.119 143.765 C 412.987 152.104, 418.281 158.007, 415.053 153.726 C 414.317 152.750, 413.971 151.695, 414.285 151.382 C 415.193 150.473, 422.269 161.756, 421.535 162.943 C 421.171 163.532, 421.574 164.283, 422.431 164.612 C 423.288 164.941, 423.694 165.725, 423.334 166.355 C 422.974 166.985, 423.045 167.169, 423.491 166.766 C 423.937 166.362, 424.950 166.812, 425.742 167.766 C 428.302 170.848, 421.834 159.750, 415.952 150.965 C 407.372 138.150, 399.425 128.568, 388.418 117.766 C 373.172 102.802, 356.524 90.828, 337.983 81.491 C 318.275 71.567, 291.667 63.485, 269.158 60.588 C 254.196 58.663, 226.599 58.650, 212.500 60.563 M 236 120.533 C 257.969 132.320, 280.139 143.032, 281.202 142.375 C 281.811 141.999, 282.041 142.125, 281.713 142.655 C 281.385 143.186, 284.578 145.293, 288.809 147.337 C 293.039 149.382, 295.626 150.368, 294.559 149.528 C 293.491 148.687, 292.227 148, 291.750 148 C 291.273 148, 291.203 147.480, 291.595 146.845 C 292.036 146.133, 291.870 145.962, 291.162 146.400 C 290.532 146.789, 289.225 146.612, 288.258 146.006 C 286.663 145.007, 286.686 144.953, 288.500 145.429 C 291.964 146.339, 293.109 144.743, 292.635 139.669 C 292.227 135.301, 292.352 135, 294.568 135 C 296.187 135, 296.767 134.557, 296.400 133.601 C 296.105 132.832, 296.414 131.862, 297.086 131.447 C 297.844 130.978, 298.052 131.107, 297.633 131.785 C 297.236 132.426, 297.690 132.849, 298.728 132.806 C 299.703 132.766, 301.400 133.060, 302.500 133.461 C 304.102 134.044, 304.202 133.974, 303 133.110 C 300.100 131.023, 303.837 132.029, 310.403 135.101 C 314.048 136.807, 317.722 137.937, 318.567 137.613 C 319.413 137.288, 321.319 137.746, 322.802 138.630 L 325.500 140.237 323 138.149 C 319.305 135.061, 301.743 126.592, 291.970 123.185 C 276.287 117.718, 264.383 115.764, 244 115.311 L 225.500 114.900 236 120.533 M 84.370 125.245 C 75.846 134.012, 69.250 142.280, 61.682 153.684 C 48.776 173.134, 37.527 197.802, 32.582 217.500 C 27.707 236.920, 26.854 243.732, 26.320 267.500 C 25.923 285.213, 26.170 293.285, 27.395 302.615 C 29.312 317.217, 33.445 333.965, 38.471 347.500 C 43.289 360.475, 52.292 378.575, 59.177 389.128 C 65.454 398.749, 78.923 415.676, 84.868 421.416 L 88.924 425.331 89.867 422.916 C 90.386 421.587, 93.934 412.341, 97.753 402.369 L 104.696 384.238 97.956 374.148 C 82.729 351.356, 73.236 327.699, 68.402 300.500 C 61.075 259.271, 72.218 210.746, 97.966 171.760 C 101.835 165.903, 105 160.727, 105 160.257 C 105 159.579, 95.157 131.557, 91.296 121.245 C 90.494 119.103, 90.147 119.304, 84.370 125.245 M 108.256 187.171 C 99.771 202.006, 91.838 223.046, 87.959 241 C 85.261 253.488, 84.313 276.490, 85.957 289.615 C 87.565 302.461, 91.858 319.365, 96.499 331.126 C 98.534 336.282, 102.964 345.578, 106.343 351.785 C 112.439 362.979, 112.498 363.048, 113.719 360.285 C 117.143 352.538, 146.063 274.729, 145.665 274.332 C 145.412 274.078, 144.434 276.188, 143.493 279.021 L 141.782 284.171 139.891 281.061 C 138.851 279.351, 138 277.561, 138 277.083 C 138 276.605, 137.325 275.955, 136.500 275.638 C 135.675 275.322, 135 274.524, 135 273.865 C 135 273.206, 135.307 272.974, 135.683 273.350 C 136.612 274.279, 138.997 268.398, 139.014 265.135 C 139.035 261.042, 140.119 257.956, 141.284 258.675 C 141.903 259.058, 142.119 258.743, 141.806 257.914 C 141.513 257.136, 140.254 253.696, 139.009 250.269 C 137.765 246.843, 136.358 244.278, 135.885 244.571 C 135.411 244.864, 135.268 244.466, 135.566 243.687 C 135.865 242.908, 132.865 233.772, 128.900 223.385 C 121.459 203.898, 113.216 182.128, 112.726 180.671 C 112.573 180.215, 110.561 183.140, 108.256 187.171 M 139.240 286.570 C 138.546 287.322, 138.037 288.289, 138.108 288.719 C 138.417 290.595, 137.934 292.077, 137.167 291.603 C 136.708 291.320, 136.333 292.418, 136.333 294.044 C 136.333 295.670, 136.446 296.887, 136.583 296.750 C 137.151 296.181, 141.050 285.718, 140.787 285.471 C 140.629 285.323, 139.933 285.817, 139.240 286.570 M 355.750 360.068 C 353.688 361.157, 352 362.271, 352 362.544 C 352 362.817, 353.800 362.122, 356 361 C 358.200 359.878, 360 358.743, 360 358.480 C 360 357.826, 359.993 357.828, 355.750 360.068 M 341 368.162 C 325.192 376.698, 254.350 415.336, 241.091 422.653 L 228.683 429.500 239.591 429.814 C 245.591 429.987, 254.641 429.619, 259.703 428.998 C 270.333 427.692, 288.458 423.114, 295 420.082 C 297.475 418.935, 298.375 418.269, 297 418.602 C 294.568 419.190, 294.555 419.164, 296.500 417.648 C 298.425 416.147, 298.381 416.097, 295.347 416.294 C 293.575 416.410, 292.446 416.938, 292.769 417.500 C 293.085 418.050, 292.366 417.643, 291.172 416.595 C 288.882 414.586, 288.259 413.424, 290.074 414.546 C 290.664 414.911, 290.552 414.234, 289.824 413.042 C 288.875 411.488, 287.751 410.980, 285.854 411.249 C 283.838 411.534, 283.343 411.269, 283.777 410.138 C 284.188 409.067, 283.880 408.832, 282.674 409.295 C 281.753 409.648, 281 409.738, 281 409.494 C 281 409.034, 286.539 406, 287.379 406 C 287.642 406, 288.564 406.707, 289.429 407.571 C 290.857 409, 291 408.957, 291 407.103 C 291 405.700, 290.531 405.243, 289.500 405.638 C 288.675 405.955, 288 405.957, 288 405.642 C 288 405.327, 295.762 400.485, 305.250 394.882 C 323.282 384.231, 348 368.433, 348 367.558 C 348 367.279, 346.875 367.477, 345.500 368 C 341.647 369.465, 342.539 368.276, 347 366 C 349.200 364.878, 351 363.743, 351 363.480 C 351 362.752, 351.139 362.687, 341 368.162 M 426.812 374.451 C 425.622 376.899, 424.209 378.629, 423.670 378.296 C 423.126 377.960, 423.008 378.204, 423.405 378.845 C 423.797 379.480, 424.309 380, 424.542 380 C 424.775 380, 426.106 377.750, 427.500 375 C 428.894 372.250, 429.795 370, 429.504 370 C 429.212 370, 428.001 372.003, 426.812 374.451 M 421.708 380.625 C 421.395 380.939, 421.408 381.900, 421.739 382.762 C 422.106 383.720, 421.929 384.074, 421.281 383.674 C 420.699 383.314, 418.959 384.703, 417.414 386.760 C 411.295 394.911, 396.812 410.956, 388.048 419.294 C 377.058 429.750, 363.304 440.542, 353.689 446.254 C 346.559 450.490, 342.167 451.230, 337.858 448.924 C 336.604 448.253, 336 448.266, 336 448.965 C 336 450.738, 330.022 450.098, 327.872 448.095 C 326.191 446.530, 326.027 445.818, 326.949 444.095 C 327.849 442.414, 327.783 442, 326.615 442 C 325.798 442, 324.858 440.631, 324.474 438.882 C 323.810 435.856, 323.657 435.779, 319.329 436.266 L 314.869 436.769 322.901 431.941 C 327.318 429.286, 333.535 425.203, 336.716 422.869 C 345.253 416.605, 357.021 405.843, 356.412 404.857 C 356.120 404.386, 356.283 404, 356.772 404 C 357.262 404, 360.764 400.512, 364.556 396.250 C 370.973 389.035, 370.639 389.272, 359.722 399.694 C 340.280 418.255, 318.568 431.317, 293.500 439.534 C 286.350 441.878, 276.225 444.547, 271 445.466 C 252.156 448.780, 222.119 448.489, 207.392 444.849 C 203.323 443.844, 203.063 443.955, 180.142 456.551 C 167.414 463.546, 157 469.600, 157 470.005 C 157 471.933, 184.869 480.258, 201.500 483.297 C 211.889 485.196, 216.989 485.487, 239.500 485.469 C 262.082 485.450, 267.027 485.157, 277.116 483.239 C 322.252 474.660, 360.413 454.851, 391.051 424.096 C 402.875 412.226, 416.345 395.375, 415.593 393.393 C 415.362 392.784, 416.031 390.984, 417.080 389.393 C 419.430 385.828, 419.640 387.034, 417.323 390.785 C 415.973 392.970, 415.948 393.207, 417.195 392 C 419.794 389.486, 424.147 381.209, 423.184 380.614 C 422.686 380.306, 422.022 380.311, 421.708 380.625" stroke="none" fill="black" fill-rule="evenodd"/>
	<path fill-opacity="0.113" d="M 0 278.502 L 0 557.004 256.250 556.752 L 512.500 556.500 512.752 278.250 L 513.004 0 256.502 0 L 0 0 0 278.502 M 0.493 279 C 0.493 432.175, 0.609 494.838, 0.750 418.250 C 0.891 341.663, 0.891 216.338, 0.750 139.750 C 0.609 63.163, 0.493 125.825, 0.493 279 M 212 60.524 C 193.364 63.110, 169.482 69.484, 155.057 75.722 L 150.614 77.644 175.107 90.168 L 199.601 102.692 208.550 100.866 C 253.313 91.731, 298.117 100.455, 336.643 125.806 C 348.202 133.412, 359.975 143.768, 369.664 154.849 C 373.823 159.607, 377.737 163.500, 378.362 163.500 C 378.986 163.500, 379.498 164.175, 379.499 165 C 379.500 166.416, 386.808 178, 387.701 178 C 388.192 178, 387.417 176.603, 384.647 172.500 L 382.622 169.500 384.811 171.405 C 386.660 173.014, 387 173.066, 387 171.738 C 387 170.874, 386.663 170.017, 386.250 169.833 C 385.837 169.650, 384.692 167.965, 383.703 166.088 C 382.269 163.363, 382.168 162.510, 383.203 161.853 C 384.203 161.219, 384.213 161.027, 383.250 161.015 C 382.563 161.007, 381.964 160.213, 381.921 159.250 C 381.874 158.205, 381.639 158.003, 381.338 158.750 C 381.060 159.437, 380.110 160, 379.226 160 C 376.552 160, 381.053 157.090, 384 156.913 C 386.299 156.775, 386.259 156.709, 383.500 156.090 C 380.504 155.418, 380.503 155.415, 382.771 154.162 C 384.020 153.472, 385.386 153.120, 385.806 153.380 C 386.995 154.115, 386.758 149.599, 385.561 148.720 C 384.978 148.290, 385.738 148.227, 387.250 148.578 C 388.762 148.929, 390 148.795, 390 148.278 C 390 147.762, 391.523 147.390, 393.385 147.452 C 395.993 147.539, 396.662 147.213, 396.301 146.032 C 395.986 145.001, 396.432 145.159, 397.666 146.515 C 399.688 148.737, 405.345 149.341, 404.542 147.250 C 404.279 146.563, 404.554 146, 405.154 146 C 405.841 146, 405.744 145.353, 404.890 144.250 C 403.822 142.871, 404.016 142.911, 405.803 144.437 C 407.050 145.502, 407.835 146.988, 407.547 147.739 C 407.259 148.490, 407.436 148.849, 407.941 148.536 C 409.369 147.654, 424.148 168.007, 432.455 182.295 C 433.988 184.933, 435.464 186.870, 435.734 186.600 C 436.468 185.865, 424.725 163.922, 418.338 154.096 C 406.926 136.536, 394.952 122.660, 380.099 109.784 C 366.598 98.080, 351.682 88.259, 335.500 80.418 C 313.944 69.973, 292.625 63.533, 269.699 60.540 C 255.345 58.667, 225.448 58.658, 212 60.524 M 226.550 115.863 C 227.072 116.338, 251.237 128.740, 280.249 143.423 C 309.573 158.264, 333.511 169.802, 334.154 169.405 C 334.793 169.010, 335.040 169.126, 334.708 169.663 C 334.377 170.198, 336.670 171.854, 339.804 173.344 C 342.937 174.833, 344.689 175.410, 343.697 174.627 C 342.328 173.545, 342.207 173.060, 343.197 172.610 C 343.914 172.285, 343.600 172.220, 342.500 172.465 C 341.400 172.711, 339.375 172.226, 338 171.387 C 336.342 170.376, 336.174 170.094, 337.500 170.550 C 339.392 171.201, 340.059 171.233, 343.387 170.833 C 345.106 170.627, 344.807 167.769, 343.003 167.168 C 342.070 166.857, 341.893 167.282, 342.400 168.614 C 342.949 170.055, 342.841 170.225, 341.944 169.334 C 341.044 168.442, 341.110 167.681, 342.224 166.091 C 343.024 164.948, 343.977 164.310, 344.340 164.673 C 344.703 165.036, 345 164.822, 345 164.198 C 345 163.569, 345.780 163.314, 346.750 163.626 C 348.177 164.085, 348.232 163.999, 347.048 163.160 C 346.249 162.595, 345.237 162.354, 344.798 162.625 C 343.154 163.641, 344.078 161.240, 346 159.500 C 347.776 157.893, 348.423 158.090, 348.150 160.154 C 348.103 160.514, 348.725 161.356, 349.532 162.027 C 350.339 162.697, 351 162.871, 351 162.414 C 351 161.957, 353.137 163.585, 355.750 166.032 C 358.363 168.478, 356.450 166.287, 351.500 161.163 C 331.781 140.749, 308.753 127.176, 281.789 120.074 C 275.580 118.439, 266.980 116.628, 262.678 116.050 C 253.243 114.784, 225.202 114.638, 226.550 115.863 M 86.189 122.842 C 76.308 133.759, 66.866 145.674, 60.705 155 C 52.529 167.376, 41.619 189.430, 36.700 203.523 C 32.655 215.115, 28.678 232.380, 26.918 246 C 25.354 258.099, 25.351 287.515, 26.913 300.500 C 30.562 330.842, 42.680 363.859, 59.761 390 C 69.867 405.466, 87.959 426.506, 89.287 424.337 C 89.568 423.877, 93.191 414.651, 97.338 403.836 L 104.877 384.172 97.390 372.967 C 87.988 358.895, 81.245 344.972, 75.542 327.857 C 65.385 297.374, 63.725 270.179, 70.096 238.620 C 75.101 213.828, 87.193 186.036, 101.128 167.293 C 103.258 164.429, 105 161.417, 105 160.599 C 105 158.482, 90.818 118.981, 90.097 119.092 C 89.769 119.142, 88.010 120.829, 86.189 122.842 M 108.694 186.087 C 99.214 203.039, 91.898 222.295, 87.830 241 C 85.861 250.051, 85.549 254.328, 85.569 272 C 85.588 289.428, 85.923 293.999, 87.806 302.500 C 89.024 308, 91.414 316.775, 93.118 322 C 96.152 331.303, 105.528 351.712, 110.278 359.352 L 112.673 363.203 113.807 360.352 C 117.745 350.449, 143.302 282.990, 145.079 277.810 L 147.243 271.500 139.642 251.276 C 135.461 240.152, 127.960 220.445, 122.972 207.483 C 117.985 194.520, 113.546 182.947, 113.109 181.765 C 112.407 179.867, 111.889 180.373, 108.694 186.087 M 360.500 357.394 C 356.100 359.790, 329.550 374.262, 301.500 389.552 C 273.450 404.843, 246 419.803, 240.500 422.798 C 235 425.792, 229.825 428.660, 229 429.171 C 228.060 429.753, 234.217 429.919, 245.500 429.615 C 258.724 429.258, 265.888 428.580, 272.500 427.059 C 285.205 424.135, 296.065 420.435, 306.500 415.474 C 318.227 409.900, 334.327 399.338, 333.396 397.831 C 332.972 397.146, 333.134 396.965, 333.802 397.378 C 334.424 397.762, 338.456 394.943, 342.957 390.977 C 347.381 387.079, 351 383.605, 351 383.258 C 351 382.661, 349.241 384.140, 341 391.669 L 337.500 394.866 335 391.461 C 333.625 389.588, 332.010 388.043, 331.411 388.028 C 330.811 388.012, 329.797 386.850, 329.156 385.444 C 328.457 383.908, 327.494 383.144, 326.746 383.530 C 326.061 383.884, 326.625 383.242, 328 382.105 C 329.375 380.967, 331.086 380.247, 331.802 380.506 C 332.518 380.765, 332.893 380.635, 332.635 380.218 C 332.377 379.800, 338.991 374.843, 347.333 369.202 C 360.727 360.145, 370.324 352.964, 368.962 353.018 C 368.708 353.029, 364.900 354.998, 360.500 357.394 M 427.209 371.750 C 418.420 384.889, 406.984 399.108, 405.797 398.374 C 405.189 397.999, 404.959 398.125, 405.287 398.655 C 405.614 399.185, 404.067 401.617, 401.848 404.060 C 399.629 406.502, 398.984 406.999, 400.413 405.165 C 402.960 401.898, 403.064 399.985, 400.691 400.015 C 400.036 400.024, 398.825 400.474, 398 401.015 C 396.667 401.891, 396.667 402.109, 398 402.985 C 398.825 403.526, 399.050 403.964, 398.500 403.958 C 397.037 403.941, 390.284 398.059, 391.691 398.027 C 392.346 398.012, 393.160 398.450, 393.500 399 C 393.840 399.550, 394.541 400, 395.059 400 C 395.577 400, 395.100 399.100, 394 398 C 391.730 395.730, 389.407 395.403, 388.662 397.250 C 388.361 397.997, 388.126 397.795, 388.079 396.750 C 388.036 395.788, 387.501 395, 386.892 395 C 386.209 395, 386.024 394.040, 386.411 392.500 C 386.904 390.536, 386.659 390.003, 385.269 390.015 C 383.761 390.028, 383.721 390.174, 385 391 C 385.825 391.533, 386.019 391.976, 385.430 391.985 C 384.842 391.993, 383.382 390.875, 382.187 389.500 C 379.878 386.845, 377.561 386.284, 376.434 388.107 C 375.979 388.842, 376.424 389, 377.756 388.577 C 378.974 388.191, 379.956 388.444, 380.254 389.220 C 380.583 390.077, 379.796 390.500, 377.873 390.500 C 376.172 390.500, 375 389.966, 375 389.191 C 375 388.471, 374.544 388.164, 373.986 388.509 C 372.894 389.183, 377.500 381.083, 381.936 374.525 C 385.132 369.801, 386.907 366.378, 384.296 369.974 C 373.167 385.301, 369.279 389.957, 360.059 399 C 354.171 404.775, 345.786 412.033, 341.427 415.128 C 319.221 430.893, 295.787 440.817, 269.500 445.587 C 255.824 448.069, 225.384 448.124, 212.177 445.692 L 202.854 443.975 179.252 456.948 L 155.649 469.921 160.541 472.018 C 167.195 474.870, 186.733 480.512, 196.500 482.403 C 200.900 483.255, 208.313 484.412, 212.974 484.976 C 223.993 486.308, 255.201 486.292, 266.026 484.949 C 289.048 482.092, 313.589 474.796, 334.449 464.605 C 373.472 445.541, 404.181 416.678, 425.488 379.040 C 430.033 371.013, 433.400 364, 432.711 364 C 432.537 364, 430.061 367.488, 427.209 371.750" stroke="none" fill="black" fill-rule="evenodd"/>
	<path fill-opacity="0.373" d="M 0 278.502 L 0 557.004 256.250 556.752 L 512.500 556.500 512.752 278.250 L 513.004 0 256.502 0 L 0 0 0 278.502 M 0.493 279 C 0.493 432.175, 0.609 494.838, 0.750 418.250 C 0.891 341.663, 0.891 216.338, 0.750 139.750 C 0.609 63.163, 0.493 125.825, 0.493 279 M 229.500 58.667 C 219.118 59.304, 205.101 61.244, 193.790 63.609 C 182.848 65.897, 158.787 73.476, 153.240 76.382 L 150.779 77.672 154.139 79.617 C 155.988 80.687, 166.977 86.368, 178.560 92.240 L 199.621 102.918 209.560 100.739 C 218.205 98.844, 222.562 98.560, 243 98.561 C 263.548 98.561, 267.775 98.840, 276.648 100.779 C 303.398 106.624, 330.678 119.679, 350 135.882 C 363.267 147.008, 378.412 164.436, 387.035 178.500 C 389.396 182.350, 393.482 190.085, 396.115 195.688 L 400.903 205.876 425.051 218.005 C 438.333 224.676, 449.449 229.884, 449.754 229.580 C 450.743 228.591, 444.886 207.808, 440.292 196 C 427.064 162.007, 404.115 129.539, 377.530 107.204 C 354.200 87.604, 326.450 73.502, 295.500 65.516 C 279.357 61.351, 273.060 60.316, 256 59.026 C 242.963 58.040, 240.310 58.004, 229.500 58.667 M 230.280 114.857 L 225.061 115.500 264.264 135.500 C 353.839 181.197, 375.138 191.801, 374.615 190.440 C 373.395 187.259, 363.843 174.024, 357.337 166.500 C 343.580 150.588, 321.499 134.704, 301.903 126.625 C 290.570 121.952, 277.615 118.253, 266.512 116.521 C 255.578 114.815, 237.401 113.980, 230.280 114.857 M 81.530 127.750 C 70.898 139.803, 63.615 149.644, 56.182 161.998 C 40.865 187.456, 31.869 212.148, 27.396 241 C 25.044 256.171, 25.005 289.828, 27.322 305.188 C 32.524 339.678, 46.846 374.035, 67.389 401.303 C 75.578 412.171, 88.225 426.183, 89.041 425.290 C 89.438 424.856, 93.215 415.429, 97.433 404.343 L 105.102 384.185 98.476 374.343 C 94.832 368.929, 88.980 358.650, 85.472 351.500 C 64.265 308.276, 61.024 264.215, 75.688 218.500 C 81.394 200.712, 93.540 176.944, 103.081 164.898 L 106.008 161.202 99.470 142.851 C 91.336 120.023, 90.930 119, 90.003 119 C 89.588 119, 85.775 122.938, 81.530 127.750 M 108.144 186.753 C 99.879 200.905, 91.354 223.550, 87.346 242 C 85.864 248.823, 85.506 254.742, 85.532 272 C 85.560 290.424, 85.879 294.904, 87.762 303.314 C 88.971 308.711, 91.513 317.770, 93.412 323.443 C 96.668 333.172, 106.500 353.987, 110.884 360.431 L 112.878 363.362 113.900 360.931 C 115.215 357.806, 137.481 299.192, 143.275 283.604 L 147.697 271.709 145.768 266.604 C 143.249 259.937, 122.955 206.767, 117.309 192.041 C 114.892 185.739, 112.750 180.416, 112.547 180.214 C 112.344 180.011, 110.363 182.954, 108.144 186.753 M 425.519 322.043 L 401.538 334.947 397.871 343.223 C 393.515 353.057, 386.282 366.221, 380.803 374.290 C 374.078 384.193, 362.409 397.443, 353.765 404.992 C 343.445 414.004, 327.686 424.507, 315.610 430.421 C 302.958 436.616, 284.720 442.548, 270.431 445.116 C 254.644 447.953, 229.293 448.179, 213.664 445.622 L 202.829 443.850 189.664 451.082 C 182.424 455.060, 171.887 460.820, 166.250 463.881 C 160.613 466.942, 156 469.745, 156 470.109 C 156 470.473, 162.187 472.814, 169.750 475.311 C 194.690 483.545, 212.823 486.394, 240 486.349 C 260.842 486.314, 275.014 484.634, 293.163 480.046 C 322.505 472.629, 351.890 457.993, 375 439.285 C 385.265 430.975, 403.366 412.231, 410.744 402.271 C 423.484 385.073, 433.823 365.378, 440.807 345 C 444.973 332.845, 450.437 311.764, 449.849 310.117 C 449.657 309.579, 438.709 314.946, 425.519 322.043 M 365.500 354.424 C 290.959 395.031, 243.786 420.793, 236.672 424.778 L 227.844 429.724 233.795 430.397 C 242.348 431.365, 263.878 429.388, 275.513 426.567 C 288.372 423.448, 298.279 419.857, 309.500 414.247 C 329.709 404.142, 348.138 388.689, 361.849 370.351 C 369.676 359.882, 375.752 349.974, 374.308 350.033 C 373.863 350.051, 369.900 352.027, 365.500 354.424" stroke="none" fill="black" fill-rule="evenodd"/>
	<path fill-opacity="0.464" d="M 0 278.502 L 0 557.004 256.250 556.752 L 512.500 556.500 512.752 278.250 L 513.004 0 256.502 0 L 0 0 0 278.502 M 0.493 279 C 0.493 432.175, 0.609 494.838, 0.750 418.250 C 0.891 341.663, 0.891 216.338, 0.750 139.750 C 0.609 63.163, 0.493 125.825, 0.493 279 M 225 58.648 C 203.575 60.653, 185.819 64.383, 167.556 70.712 C 146.713 77.936, 145.936 75.750, 174.560 90.420 L 199.387 103.144 210.943 100.841 C 220.749 98.887, 225.606 98.539, 243 98.541 C 258.495 98.543, 265.697 98.974, 272.500 100.306 C 292.577 104.236, 315.108 112.892, 331.500 122.972 C 358.361 139.490, 382.243 166.528, 395.581 195.522 L 400.356 205.903 425.249 218.547 C 438.940 225.502, 450.364 230.970, 450.635 230.698 C 451.458 229.875, 446.225 210.519, 442.390 200.199 C 435.194 180.838, 422.532 157.888, 409.363 140.338 C 401.846 130.320, 384.668 112.509, 375.015 104.723 C 348.651 83.459, 313.664 67.562, 280 61.549 C 263.411 58.586, 239.264 57.312, 225 58.648 M 87 62.466 C 87 63.344, 99.021 92.653, 128.027 162.500 C 143.330 199.350, 159.616 238.725, 164.217 250 L 172.582 270.500 329.518 270.753 C 461.508 270.966, 486.140 270.792, 484.477 269.656 C 482.305 268.174, 441.918 246.649, 419 234.761 C 411.025 230.624, 393.700 221.617, 380.500 214.746 C 367.300 207.875, 336.700 192.009, 312.500 179.488 C 259.641 152.139, 211.532 127.090, 157 98.527 C 93.263 65.141, 87 61.915, 87 62.466 M 226.589 114.816 C 225.101 115.457, 241.358 124.160, 300.089 154.166 C 341.565 175.356, 375.665 192.560, 375.867 192.397 C 376.532 191.859, 369.848 181.637, 363.510 173.500 C 360.083 169.100, 352.985 161.395, 347.736 156.378 C 326.921 136.483, 300.001 122.608, 271.265 116.964 C 259.802 114.712, 230.141 113.286, 226.589 114.816 M 83.072 125.664 C 60.119 150.463, 42.112 182.219, 32.928 214.096 C 31.407 219.374, 29.126 229.499, 27.859 236.596 C 25.890 247.629, 25.554 252.907, 25.543 273 C 25.533 290.885, 25.953 299.030, 27.301 307.088 C 32.742 339.610, 45.474 370.965, 63.720 396.774 C 69.989 405.641, 87.454 426.004, 88.784 425.995 C 89.668 425.990, 105 386.075, 105 383.777 C 105 382.865, 104.590 381.865, 104.089 381.555 C 102.669 380.677, 92.762 365.312, 88.257 357 C 82.768 346.873, 75.646 328.605, 72.609 316.863 C 65.440 289.153, 65.211 260.725, 71.928 232.617 C 76.862 211.970, 86.886 189.280, 99.106 171.093 L 106.099 160.687 98.929 140.593 C 94.986 129.542, 91.437 119.899, 91.042 119.164 C 90.538 118.225, 88.172 120.155, 83.072 125.664 M 104.159 194.210 C 95.650 211.331, 90.770 225.192, 87.529 241.442 C 84.331 257.478, 83.534 270.924, 84.945 285 C 87.197 307.447, 92.283 324.963, 102.512 345.500 C 108.789 358.104, 112.413 363.985, 113.287 362.985 C 113.520 362.718, 117.204 353.275, 121.473 342 C 125.743 330.725, 133.481 310.323, 138.670 296.662 L 148.104 271.823 137.447 243.768 C 119.101 195.470, 113.176 180.559, 112.203 180.234 C 111.685 180.062, 108.065 186.351, 104.159 194.210 M 425.874 321.331 L 401.253 334.500 397.612 342.876 C 392.145 355.454, 383.616 370.097, 375.425 380.971 C 371.397 386.317, 363.317 395.260, 357.468 400.844 C 334.802 422.485, 305.912 437.536, 274.164 444.246 C 264.776 446.230, 260.688 446.494, 240 446.448 C 222.375 446.409, 214.830 446.006, 209.821 444.835 L 203.143 443.274 179.972 456.037 C 167.228 463.056, 156.378 469.222, 155.862 469.738 C 155.277 470.323, 159.552 472.233, 167.211 474.807 C 191.228 482.877, 206.716 485.735, 231.500 486.670 C 268.042 488.047, 301.856 480.954, 334.520 465.058 C 350.591 457.238, 365.301 447.698, 379.110 436.143 C 408.908 411.206, 432.083 375.949, 443.917 337.548 C 446.332 329.713, 451.247 308.914, 450.792 308.459 C 450.629 308.295, 439.416 314.088, 425.874 321.331 M 363 355.365 C 356.675 358.837, 338.450 368.780, 322.500 377.461 C 254.788 414.312, 228 429.279, 228 430.261 C 228 430.970, 233.378 431.104, 244.750 430.681 C 262.533 430.018, 274.100 428.080, 288.500 423.350 C 313.376 415.180, 338.769 398.552, 354.679 380.016 C 364.343 368.756, 377.505 348.952, 375.276 349.026 C 374.849 349.040, 369.325 351.893, 363 355.365" stroke="none" fill="black" fill-rule="evenodd"/>
	<path fill-opacity="0.337" d="M 0 278.502 L 0 557.004 256.250 556.752 L 512.500 556.500 512.752 278.250 L 513.004 0 256.502 0 L 0 0 0 278.502 M 0.493 279 C 0.493 432.175, 0.609 494.838, 0.750 418.250 C 0.891 341.663, 0.891 216.338, 0.750 139.750 C 0.609 63.163, 0.493 125.825, 0.493 279 M 217 59.115 C 204.612 60.529, 188.474 63.892, 176.137 67.629 C 163.733 71.387, 149.993 76.758, 150.010 77.843 C 150.016 78.204, 153.157 80.021, 156.989 81.879 C 160.822 83.738, 163.719 85.645, 163.427 86.118 C 163.135 86.590, 163.668 86.681, 164.612 86.319 C 165.868 85.836, 166.109 86.015, 165.510 86.985 C 164.977 87.846, 165.078 88.070, 165.798 87.625 C 166.407 87.249, 174.239 90.617, 183.203 95.110 L 199.500 103.278 208.097 101.637 C 247.824 94.053, 285.458 99.112, 319.617 116.629 C 344.667 129.475, 365.328 147.870, 382.099 172.259 C 385.412 177.077, 390.838 186.637, 394.158 193.503 L 400.193 205.988 425.347 218.953 C 446.626 229.920, 450.547 231.635, 450.803 230.083 C 450.970 229.075, 450.181 224.625, 449.050 220.195 C 441.879 192.108, 424.572 158.468, 404.890 134.358 C 385.543 110.659, 359.600 90.464, 332.295 77.849 C 312.641 68.769, 286.221 61.536, 263.500 59.015 C 252.922 57.841, 227.686 57.896, 217 59.115 M 86.220 62.089 C 93.201 79.759, 104.308 106.892, 118.522 141 C 148.300 212.454, 172 270.222, 172 271.350 C 172 273.025, 163.890 292.355, 106.486 427.500 C 82.101 484.909, 77.255 496.505, 77.521 496.812 C 77.670 496.984, 98.651 485.566, 124.146 471.438 C 149.641 457.310, 181.525 439.674, 195 432.247 C 208.475 424.819, 228.950 413.453, 240.500 406.989 C 259.053 396.605, 279.106 385.478, 294.500 377.026 C 297.250 375.516, 314.125 366.193, 332 356.308 C 377.484 331.154, 400.497 318.528, 446.500 293.485 C 468.500 281.509, 486.721 271.517, 486.992 271.280 C 487.629 270.722, 487.362 270.569, 461.505 256.677 C 438.826 244.492, 388.189 218.084, 314 179.751 C 266.547 155.233, 244.502 143.751, 170.500 105.009 C 87.924 61.780, 85.638 60.615, 86.220 62.089 M 224.002 114.621 C 224.004 115.104, 247.291 127.400, 275.752 141.944 C 304.214 156.488, 338.268 173.936, 351.429 180.717 C 364.589 187.499, 375.734 192.922, 376.194 192.769 C 377.451 192.350, 366.716 176.635, 358.736 167.211 C 350.888 157.943, 337.310 146.128, 326 138.727 C 310.789 128.774, 291.843 121.004, 272.970 116.979 C 265.014 115.282, 257.878 114.625, 243.250 114.243 C 232.462 113.962, 224.001 114.128, 224.002 114.621 M 86.189 121.848 C 69.011 140.793, 55.923 159.495, 46.737 178.222 C 37.183 197.699, 31.343 215.560, 27.518 237 C 25.254 249.693, 24.380 282.331, 25.909 297.119 C 27.344 310.999, 31.032 327.974, 35.660 342 C 40.003 355.162, 52.002 379.820, 59.504 391 C 69.381 405.720, 87.969 427.365, 89.455 425.878 C 89.729 425.605, 93.528 416.049, 97.897 404.644 L 105.842 383.908 100.042 375.810 C 92.851 365.771, 83.349 347.604, 78.625 334.864 C 68.829 308.440, 65.190 281.496, 68.044 256.500 C 71.513 226.109, 82.207 196.752, 98.903 171.783 C 102.806 165.946, 105.999 160.795, 105.997 160.335 C 105.990 158.374, 91.156 118.561, 90.368 118.388 C 89.891 118.283, 88.010 119.840, 86.189 121.848 M 108.149 185.745 C 100.107 199.515, 92.326 219.175, 88.543 235.283 C 81.433 265.558, 83.069 295.085, 93.511 325 C 98.483 339.243, 110.941 363.992, 113.142 363.998 C 113.494 363.999, 114.070 362.857, 114.421 361.459 C 114.772 360.062, 115.490 359.185, 116.018 359.511 C 116.545 359.837, 116.734 359.471, 116.437 358.697 C 116.140 357.924, 123.121 338.334, 131.949 315.165 C 140.777 291.996, 148 272.556, 148 271.965 C 148 270.961, 127.472 216.494, 119.565 196.521 C 117.610 191.582, 116.229 186.632, 116.496 185.521 C 116.763 184.409, 116.707 184.112, 116.371 184.859 C 115.976 185.738, 115.161 184.859, 114.063 182.371 L 112.366 178.524 108.149 185.745 M 425.228 321.328 L 400.956 334.551 396.465 344.526 C 387.152 365.214, 376.681 380.894, 361.895 396.293 C 355.304 403.158, 351.882 406.045, 350.990 405.494 C 350.183 404.995, 349.935 405.086, 350.335 405.733 C 351.813 408.124, 330.745 422.379, 313.773 430.471 C 299.869 437.101, 287.601 441.214, 272.828 444.199 C 263.023 446.179, 258.609 446.478, 240 446.422 C 224.201 446.374, 216.451 445.925, 210.774 444.731 L 203.047 443.105 180.504 455.553 C 168.105 462.399, 157.717 468, 157.421 468 C 157.125 468, 157.203 467.480, 157.595 466.845 C 158.041 466.124, 157.869 465.963, 157.138 466.415 C 156.494 466.813, 156.203 467.519, 156.490 467.984 C 156.777 468.449, 156.447 469.093, 155.756 469.415 C 154.748 469.884, 154.748 470.116, 155.756 470.585 C 156.447 470.907, 156.715 471.652, 156.352 472.240 C 155.953 472.885, 156.165 473.016, 156.888 472.569 C 158.272 471.714, 168.122 474.994, 167.447 476.086 C 167.200 476.486, 168.010 476.591, 169.249 476.320 C 171.125 475.909, 171.250 476.023, 170 477.008 C 168.709 478.024, 168.743 478.110, 170.244 477.628 C 171.203 477.320, 177.014 478.386, 183.156 479.997 C 203.580 485.356, 213.231 486.478, 239 486.489 C 253.613 486.496, 265.714 485.999, 271 485.176 C 283.914 483.163, 298.353 479.565, 310 475.456 C 315.775 473.418, 321.470 471.695, 322.655 471.626 C 323.839 471.557, 324.643 471.232, 324.440 470.904 C 324.238 470.576, 327.612 468.715, 331.938 466.769 C 357.847 455.117, 387.370 432.194, 405.695 409.500 C 420.139 391.611, 432.705 369.607, 440.500 348.549 C 444.081 338.873, 451 313.320, 451 309.766 C 451 308.795, 450.663 308.024, 450.250 308.053 C 449.837 308.082, 438.578 314.056, 425.228 321.328 M 311.500 383.203 C 276.300 402.505, 246.746 418.327, 245.823 418.363 C 244.901 418.399, 244.413 418.859, 244.737 419.384 C 245.077 419.934, 244.599 420.060, 243.612 419.681 C 242.635 419.306, 242.148 419.430, 242.481 419.969 C 243.251 421.215, 237.268 424.284, 235.816 423.386 C 235.078 422.930, 234.973 423.147, 235.510 424.015 C 236.109 424.985, 235.868 425.164, 234.612 424.681 C 233.602 424.294, 233.145 424.426, 233.501 425.002 C 233.834 425.541, 232.508 426.744, 230.553 427.676 C 228.599 428.608, 227 429.737, 227 430.185 C 227 431.589, 252.751 431.073, 263.683 429.450 C 304.912 423.328, 342.955 399.729, 365.863 366.065 C 373.171 355.326, 377.444 347.984, 376.345 348.054 C 375.880 348.084, 346.700 363.901, 311.500 383.203" stroke="none" fill="black" fill-rule="evenodd"/>
</svg>